<svg width="207" height="32" viewBox="0 0 207 32" fill="none" xmlns="http://www.w3.org/2000/svg">
<path d="M34.2763 31.5183H29.3802C29.3802 29.6248 28.1945 27.8042 26.0383 26.3996C23.6888 24.8673 20.5293 24.0209 17.14 24.0209C13.7507 24.0209 10.5912 24.8673 8.24163 26.3996C6.08546 27.8042 4.89609 29.6211 4.89609 31.5183H0C0 29.8692 0.492527 28.2749 1.45934 26.7791C2.36413 25.3854 3.64471 24.1449 5.26458 23.0869C8.46419 21.0001 12.6817 19.8508 17.14 19.8508C21.5983 19.8508 25.8158 21.0001 29.0154 23.0869C30.6352 24.1449 31.9122 25.3854 32.817 26.7791C33.7874 28.2749 34.2763 29.8692 34.2763 31.5183Z" fill="#1AABE7"/>
<path d="M5.9979 26.1842C5.26823 27.8698 4.89974 29.6647 4.89974 31.5181H0C0 31.4561 0.00364836 31.3941 0.00364836 31.332C0.0401314 29.7487 0.529011 28.2163 1.45934 26.7789C2.36413 25.3852 3.64471 24.1448 5.26458 23.0868C6.71662 22.1382 8.38392 21.383 10.1862 20.843C9.75205 21.175 9.33249 21.5326 8.94212 21.9156C7.68708 23.1415 6.69838 24.5753 5.9979 26.1842ZM34.2763 31.332C34.2398 29.7487 33.7509 28.2163 32.817 26.7789C31.9158 25.3852 30.6352 24.1448 29.0154 23.0868C27.5633 22.1382 25.896 21.383 24.0937 20.843C24.5279 21.175 24.9475 21.5326 25.3378 21.9156C26.5929 23.1415 27.5852 24.5753 28.2784 26.1842C29.0117 27.8698 29.3802 29.6647 29.3802 31.5181H34.2763C34.2763 31.4561 34.2763 31.3941 34.2763 31.332Z" fill="#3A85E9"/>
<path d="M34.2763 31.5181H29.3802C29.3802 27.7603 29.0117 24.1156 28.2784 20.6935C27.5852 17.4318 26.5929 14.5168 25.3378 12.0286C24.1558 9.68638 22.7511 7.79654 21.2772 6.55974C19.92 5.42511 18.53 4.84866 17.14 4.84866C15.7536 4.84866 14.3599 5.42511 13.0027 6.55974C11.5288 7.79654 10.1242 9.68638 8.94212 12.0286C7.68708 14.5168 6.69838 17.4318 6.00154 20.6935C5.26822 24.1193 4.89974 27.7603 4.89974 31.5181H0C0 23.3787 1.61987 15.6843 4.56409 9.8615C6.05992 6.89174 7.83667 4.53855 9.83961 2.86031C10.9232 1.95187 12.0724 1.24774 13.2508 0.769803C14.5168 0.259033 15.8229 0 17.14 0C18.457 0 19.7631 0.259033 21.0291 0.769803C22.2075 1.24774 23.3568 1.95187 24.4403 2.86031C26.4433 4.53855 28.22 6.89174 29.7159 9.8615C32.6564 15.6843 34.2763 23.3787 34.2763 31.5181Z" fill="#1AABE7"/>
<path d="M48.883 22.3033C49.3792 22.3033 49.8207 22.296 50.211 22.2741C50.5978 22.2558 50.9188 22.2121 51.1742 22.1427V18.6257C51.0283 18.5491 50.7802 18.4871 50.4299 18.436C50.087 18.3776 49.6747 18.3484 49.1895 18.3484C48.8758 18.3484 48.5401 18.374 48.1826 18.4214C47.8214 18.4615 47.4894 18.5528 47.1902 18.6987C46.8983 18.8446 46.6539 19.0453 46.4605 19.297C46.2635 19.5415 46.1687 19.8662 46.1687 20.2748C46.1687 21.0446 46.4095 21.5736 46.8983 21.8655C47.3836 22.1573 48.0439 22.3033 48.883 22.3033ZM48.6933 11.6938C49.547 11.6938 50.2694 11.8069 50.8532 12.0295C51.4369 12.2447 51.9039 12.5549 52.2541 12.9635C52.6117 13.3648 52.8671 13.8391 53.013 14.3936C53.1662 14.9482 53.2465 15.5611 53.2465 16.2324V23.6313C53.0714 23.6605 52.816 23.7042 52.4876 23.7626C52.1556 23.8137 51.7871 23.8538 51.3785 23.8939C50.9699 23.9414 50.5248 23.9852 50.0505 24.0253C49.5726 24.0618 49.0947 24.0837 48.6204 24.0837C47.9564 24.0837 47.3434 24.0143 46.7816 23.8794C46.2161 23.7444 45.7309 23.5291 45.3223 23.2372C44.9136 22.9381 44.5926 22.5441 44.3591 22.0552C44.1329 21.5699 44.0234 20.9862 44.0234 20.304C44.0234 19.6546 44.1548 19.0927 44.4175 18.6257C44.6874 18.1514 45.0486 17.772 45.4974 17.4874C45.9534 17.1956 46.4824 16.984 47.0881 16.8453C47.701 16.7103 48.3431 16.641 49.0144 16.641C49.226 16.641 49.4449 16.652 49.6711 16.6702C49.9046 16.6921 50.1235 16.7213 50.3278 16.7578C50.5321 16.7979 50.7072 16.8307 50.8532 16.8599C51.0064 16.8891 51.1158 16.9146 51.1742 16.9329V16.3346C51.1742 15.9953 51.1341 15.656 51.0575 15.313C50.9881 14.9628 50.8532 14.6563 50.6489 14.3936C50.4518 14.1309 50.1855 13.923 49.8462 13.7661C49.5033 13.6019 49.0618 13.518 48.5182 13.518C47.8177 13.518 47.2048 13.5691 46.6794 13.664C46.1541 13.7625 45.7637 13.8646 45.512 13.9704L45.2493 12.2192C45.5302 12.0952 45.9863 11.9784 46.6211 11.869C47.2632 11.7522 47.9527 11.6938 48.6933 11.6938Z" fill="#1AABE7"/>
<path d="M60.671 24.0691C59.3649 24.029 58.4419 23.748 57.8983 23.2227C57.351 22.69 57.0811 21.8618 57.0811 20.7418V6.5278L59.1971 6.16296V20.3915C59.1971 20.7418 59.2263 21.0337 59.2847 21.2672C59.343 21.4934 59.4379 21.6721 59.5765 21.8071C59.7225 21.9457 59.9049 22.0479 60.1311 22.1136C60.3536 22.1829 60.6346 22.2413 60.9775 22.2887L60.671 24.0691Z" fill="#1AABE7"/>
<path d="M71.9241 17.9399C71.9241 16.5608 71.5812 15.4991 70.9026 14.7585C70.2203 14.0106 69.3119 13.6348 68.1736 13.6348C67.5315 13.6348 67.028 13.6604 66.6705 13.7078C66.3202 13.7479 66.0357 13.7953 65.8241 13.8537V21.3255C66.0867 21.5408 66.4552 21.7488 66.9332 21.9531C67.4184 22.1501 67.9547 22.2449 68.5384 22.2449C69.1404 22.2449 69.6548 22.1355 70.0853 21.9093C70.5231 21.6867 70.877 21.3839 71.1507 21.0045C71.4206 20.6178 71.6176 20.1581 71.7344 19.6327C71.8584 19.1073 71.9241 18.5455 71.9241 17.9399ZM74.1423 17.9399C74.1423 18.8374 74.0183 19.6619 73.7775 20.4208C73.544 21.1796 73.1974 21.8327 72.7413 22.3763C72.2926 22.9235 71.738 23.3504 71.0777 23.6605C70.4137 23.9597 69.6621 24.1129 68.8157 24.1129C68.1225 24.1129 67.5169 24.018 66.9915 23.8356C66.4735 23.6532 66.0867 23.4781 65.8241 23.3103V28.0531H63.708V12.3506C64.2042 12.2338 64.8244 12.1025 65.576 11.9566C66.3348 11.8106 67.2031 11.7377 68.1882 11.7377C69.1003 11.7377 69.9248 11.8836 70.6545 12.1755C71.3841 12.46 72.0044 12.8687 72.5224 13.4013C73.0369 13.9376 73.4345 14.5907 73.7191 15.3568C74 16.1157 74.1423 16.9767 74.1423 17.9399Z" fill="#1AABE7"/>
<path d="M77.4893 23.8356V6.5278L79.6053 6.16296V12.2192C80.003 12.066 80.4262 11.9493 80.8749 11.869C81.32 11.7814 81.7651 11.7377 82.2029 11.7377C83.1442 11.7377 83.9286 11.8763 84.5525 12.1463C85.1727 12.4089 85.6689 12.7811 86.041 13.2554C86.4095 13.7333 86.6722 14.3061 86.829 14.9774C86.9823 15.6414 87.0625 16.3747 87.0625 17.181V23.8356H84.9319V17.6334C84.9319 16.9037 84.8808 16.2835 84.786 15.7654C84.6875 15.251 84.5233 14.8388 84.2898 14.525C84.0636 14.2039 83.7644 13.9704 83.385 13.8245C83.0056 13.6786 82.5313 13.6056 81.9694 13.6056C81.7432 13.6056 81.5097 13.6202 81.269 13.6494C81.0245 13.6786 80.791 13.7151 80.5685 13.7515C80.3532 13.7917 80.1599 13.8355 79.9847 13.8829C79.8096 13.934 79.6819 13.9704 79.6053 13.9996V23.8356H77.4893Z" fill="#1AABE7"/>
<path d="M94.8733 22.3033C95.3695 22.3033 95.8109 22.296 96.2013 22.2741C96.588 22.2558 96.9091 22.2121 97.1644 22.1427V18.6257C97.0185 18.5491 96.7704 18.4871 96.4202 18.436C96.0772 18.3776 95.665 18.3484 95.1797 18.3484C94.866 18.3484 94.5303 18.374 94.1728 18.4214C93.8116 18.4615 93.4796 18.5528 93.1804 18.6987C92.8886 18.8446 92.6441 19.0453 92.4508 19.297C92.2538 19.5415 92.1589 19.8662 92.1589 20.2748C92.1589 21.0446 92.3997 21.5736 92.8886 21.8655C93.3738 22.1573 94.0342 22.3033 94.8733 22.3033ZM94.6836 11.6938C95.5373 11.6938 96.2597 11.8069 96.8434 12.0295C97.4271 12.2447 97.8941 12.5549 98.2444 12.9635C98.6019 13.3648 98.8573 13.8391 99.0032 14.3936C99.1565 14.9482 99.2367 15.5611 99.2367 16.2324V23.6313C99.0616 23.6605 98.8062 23.7042 98.4779 23.7626C98.1459 23.8137 97.7774 23.8538 97.3688 23.8939C96.9601 23.9414 96.515 23.9852 96.0408 24.0253C95.5628 24.0618 95.0849 24.0837 94.6106 24.0837C93.9466 24.0837 93.3337 24.0143 92.7718 23.8794C92.2063 23.7444 91.7211 23.5291 91.3125 23.2372C90.9039 22.9381 90.5828 22.5441 90.3493 22.0552C90.1231 21.5699 90.0137 20.9862 90.0137 20.304C90.0137 19.6546 90.145 19.0927 90.4077 18.6257C90.6777 18.1514 91.0389 17.772 91.4876 17.4874C91.9437 17.1956 92.4727 16.984 93.0783 16.8453C93.6912 16.7103 94.3333 16.641 95.0046 16.641C95.2162 16.641 95.4351 16.652 95.6613 16.6702C95.8948 16.6921 96.1137 16.7213 96.318 16.7578C96.5223 16.7979 96.6975 16.8307 96.8434 16.8599C96.9966 16.8891 97.1061 16.9146 97.1644 16.9329V16.3346C97.1644 15.9953 97.1243 15.656 97.0477 15.313C96.9784 14.9628 96.8434 14.6563 96.6391 14.3936C96.4421 14.1309 96.1757 13.923 95.8364 13.7661C95.4935 13.6019 95.0521 13.518 94.5084 13.518C93.808 13.518 93.195 13.5691 92.6697 13.664C92.1443 13.7625 91.7539 13.8646 91.5022 13.9704L91.2395 12.2192C91.5204 12.0952 91.9765 11.9784 92.6113 11.869C93.2534 11.7522 93.943 11.6938 94.6836 11.6938Z" fill="#1AABE7"/>
<path d="M103.107 12.336C103.593 12.212 104.235 12.0806 105.034 11.942C105.84 11.807 106.77 11.7377 107.821 11.7377C108.762 11.7377 109.547 11.8763 110.171 12.1463C110.791 12.409 111.287 12.7811 111.659 13.2554C112.028 13.7333 112.29 14.3061 112.447 14.9774C112.6 15.6414 112.681 16.3747 112.681 17.181V23.8356H110.55V17.6334C110.55 16.9037 110.499 16.2835 110.404 15.7655C110.306 15.251 110.141 14.8388 109.908 14.525C109.682 14.204 109.383 13.9705 109.003 13.8245C108.624 13.6786 108.149 13.6056 107.588 13.6056C107.361 13.6056 107.128 13.6166 106.887 13.6348C106.643 13.6458 106.409 13.664 106.187 13.6932C105.971 13.7151 105.778 13.737 105.603 13.7662C105.428 13.7953 105.3 13.8209 105.223 13.8391V23.8356H103.107V12.336Z" fill="#D9D9D9"/>
<path d="M126.995 17.9106C126.995 18.8556 126.857 19.7056 126.587 20.4645C126.313 21.2234 125.93 21.8764 125.434 22.42C124.945 22.9673 124.357 23.3905 123.668 23.6896C122.986 23.9815 122.241 24.1274 121.435 24.1274C120.636 24.1274 119.892 23.9815 119.202 23.6896C118.52 23.3905 117.933 22.9673 117.437 22.42C116.948 21.8764 116.568 21.2234 116.298 20.4645C116.025 19.7056 115.89 18.8556 115.89 17.9106C115.89 16.9876 116.025 16.1412 116.298 15.3714C116.568 14.6052 116.948 13.9485 117.437 13.4013C117.933 12.8577 118.52 12.4381 119.202 12.1462C119.892 11.8471 120.636 11.6938 121.435 11.6938C122.241 11.6938 122.986 11.8471 123.668 12.1462C124.357 12.4381 124.945 12.8577 125.434 13.4013C125.93 13.9485 126.313 14.6052 126.587 15.3714C126.857 16.1412 126.995 16.9876 126.995 17.9106ZM124.792 17.9106C124.792 16.579 124.489 15.5246 123.887 14.7439C123.292 13.9558 122.475 13.5618 121.435 13.5618C120.403 13.5618 119.585 13.9558 118.983 14.7439C118.389 15.5246 118.093 16.579 118.093 17.9106C118.093 19.2532 118.389 20.3149 118.983 21.092C119.585 21.8728 120.403 22.2595 121.435 22.2595C122.475 22.2595 123.292 21.8728 123.887 21.092C124.489 20.3149 124.792 19.2532 124.792 17.9106Z" fill="#D9D9D9"/>
<path d="M130.351 12.336C130.836 12.212 131.478 12.0806 132.277 11.942C133.072 11.807 133.992 11.7377 135.035 11.7377C135.794 11.7377 136.429 11.8398 136.947 12.0441C137.472 12.2484 137.91 12.5513 138.26 12.9489C138.355 12.8723 138.516 12.7665 138.742 12.6279C138.975 12.4929 139.256 12.3615 139.588 12.2338C139.928 12.0989 140.303 11.9821 140.712 11.8836C141.121 11.7887 141.562 11.7377 142.04 11.7377C142.945 11.7377 143.682 11.8763 144.258 12.1463C144.842 12.409 145.294 12.7847 145.615 13.27C145.944 13.7589 146.17 14.3353 146.287 15.0066C146.403 15.6706 146.462 16.393 146.462 17.181V23.8356H144.331V17.6334C144.331 16.9439 144.295 16.3492 144.229 15.853C144.16 15.3495 144.028 14.93 143.835 14.598C143.649 14.2587 143.39 14.0106 143.061 13.8537C142.74 13.6895 142.321 13.6056 141.806 13.6056C141.095 13.6056 140.508 13.7041 140.041 13.8975C139.574 14.0836 139.256 14.255 139.092 14.4083C139.216 14.7986 139.311 15.2328 139.369 15.7071C139.428 16.1741 139.457 16.6666 139.457 17.181V23.8356H137.341V17.6334C137.341 16.9439 137.301 16.3492 137.224 15.853C137.144 15.3495 137.009 14.93 136.815 14.598C136.629 14.2587 136.37 14.0106 136.042 13.8537C135.721 13.6895 135.312 13.6056 134.816 13.6056C134.601 13.6056 134.371 13.6166 134.13 13.6348C133.886 13.6458 133.652 13.664 133.43 13.6932C133.215 13.7151 133.014 13.737 132.831 13.7662C132.645 13.7953 132.525 13.8209 132.467 13.8391V23.8356H130.351V12.336Z" fill="#D9D9D9"/>
<path d="M152.443 23.8356H150.327V11.9857H152.443V23.8356ZM151.378 9.85509C150.998 9.85509 150.67 9.73105 150.4 9.47566C150.137 9.22393 150.006 8.88463 150.006 8.45412C150.006 8.03821 150.137 7.70256 150.4 7.44718C150.67 7.19544 150.998 7.06775 151.378 7.06775C151.757 7.06775 152.078 7.19544 152.341 7.44718C152.603 7.70256 152.735 8.03821 152.735 8.45412C152.735 8.88463 152.603 9.22393 152.341 9.47566C152.078 9.73105 151.757 9.85509 151.378 9.85509Z" fill="#D9D9D9"/>
<path d="M161.606 24.1129C160.643 24.1129 159.8 23.9596 159.081 23.6605C158.359 23.3503 157.753 22.9235 157.257 22.3762C156.768 21.8326 156.403 21.1869 156.163 20.4353C155.918 19.6764 155.798 18.8446 155.798 17.9398C155.798 17.0277 155.929 16.1886 156.192 15.4298C156.455 14.6709 156.827 14.0142 157.316 13.4597C157.801 12.9051 158.395 12.4746 159.096 12.1608C159.804 11.8507 160.592 11.6938 161.46 11.6938C161.993 11.6938 162.525 11.7449 163.051 11.8398C163.583 11.9273 164.094 12.0696 164.583 12.263L164.102 14.058C163.788 13.912 163.423 13.7953 163.007 13.7077C162.587 13.6129 162.139 13.5618 161.664 13.5618C160.486 13.5618 159.581 13.9376 158.95 14.6855C158.315 15.4261 158.001 16.5097 158.001 17.9398C158.001 18.5746 158.074 19.1584 158.22 19.691C158.366 20.2274 158.592 20.6834 158.906 21.0628C159.216 21.4423 159.614 21.7341 160.103 21.9384C160.588 22.1427 161.176 22.2449 161.869 22.2449C162.431 22.2449 162.941 22.1938 163.401 22.0844C163.857 21.9786 164.211 21.8618 164.466 21.7341L164.773 23.5145C164.645 23.5948 164.466 23.6678 164.233 23.7334C164.007 23.8027 163.751 23.8575 163.459 23.9085C163.175 23.9669 162.868 24.0143 162.54 24.0545C162.219 24.091 161.905 24.1129 161.606 24.1129Z" fill="#D9D9D9"/>
<path d="M170.17 22.3033C171.034 22.3033 171.676 22.1938 172.096 21.9676C172.512 21.7451 172.724 21.3802 172.724 20.8731C172.724 20.3587 172.512 19.9501 172.096 19.6473C171.687 19.3481 171.016 19.0052 170.082 18.6257C169.622 18.4433 169.185 18.2572 168.769 18.0712C168.349 17.8778 167.984 17.6553 167.674 17.3999C167.371 17.1372 167.127 16.8271 166.945 16.4659C166.769 16.0974 166.682 15.645 166.682 15.1087C166.682 14.058 167.065 13.2262 167.835 12.6132C168.612 12.0003 169.674 11.6938 171.016 11.6938C171.344 11.6938 171.676 11.7157 172.009 11.7522C172.348 11.7924 172.658 11.8398 172.942 11.8982C173.234 11.9492 173.486 12.0003 173.701 12.0587C173.924 12.1171 174.099 12.1718 174.227 12.2192L173.833 14.0434C173.606 13.9193 173.253 13.7917 172.767 13.664C172.278 13.5399 171.695 13.4742 171.016 13.4742C170.421 13.4742 169.9 13.591 169.455 13.8245C169.017 14.058 168.798 14.4301 168.798 14.9336C168.798 15.189 168.845 15.4152 168.944 15.6195C169.039 15.8165 169.192 15.9953 169.396 16.1594C169.608 16.3163 169.867 16.4622 170.17 16.5972C170.469 16.7359 170.834 16.8745 171.264 17.0204C171.819 17.2357 172.315 17.4437 172.753 17.648C173.198 17.8523 173.577 18.0931 173.891 18.363C174.201 18.6367 174.438 18.9687 174.606 19.3554C174.77 19.7458 174.854 20.2237 174.854 20.7855C174.854 21.8764 174.446 22.7046 173.628 23.2664C172.818 23.8319 171.666 24.1129 170.17 24.1129C169.119 24.1129 168.294 24.0253 167.703 23.8502C167.109 23.675 166.704 23.5401 166.492 23.4416L166.886 21.632C167.127 21.7195 167.514 21.8582 168.039 22.0406C168.572 22.2157 169.283 22.3033 170.17 22.3033Z" fill="#D9D9D9"/>
<path d="M182.02 18.3747C182.02 19.2029 182.137 19.9727 182.37 20.6805C182.611 21.381 182.969 22.0304 183.436 22.636L182.793 23.0738C182.286 22.4609 181.878 21.7531 181.568 20.9578C181.265 20.1624 181.115 19.3014 181.115 18.3747C181.115 17.4627 181.265 16.6053 181.568 15.8063C181.878 15 182.286 14.2886 182.793 13.6757L183.436 14.1135C182.969 14.7191 182.611 15.3758 182.37 16.0836C182.137 16.7841 182.02 17.5502 182.02 18.3747Z" fill="#1AABE7"/>
<path d="M185.332 16.4484C185.437 16.3828 185.602 16.3098 185.828 16.2295C186.05 16.1529 186.309 16.1128 186.601 16.1128C186.959 16.1128 187.28 16.1821 187.564 16.3171C187.845 16.4448 188.082 16.6236 188.279 16.8571C188.473 17.0906 188.619 17.3678 188.717 17.6889C188.823 18.0099 188.878 18.3675 188.878 18.7542C188.878 19.1628 188.812 19.5349 188.688 19.8633C188.571 20.1844 188.4 20.4616 188.177 20.6951C187.962 20.9213 187.699 21.0964 187.389 21.2205C187.075 21.3372 186.725 21.3956 186.338 21.3956C185.919 21.3956 185.543 21.3664 185.215 21.308C184.894 21.2497 184.631 21.1913 184.427 21.1329V13.9092L185.332 13.7487V16.4484ZM185.332 20.4908C185.419 20.52 185.543 20.5455 185.711 20.5638C185.875 20.5857 186.083 20.593 186.338 20.593C186.813 20.593 187.2 20.4397 187.491 20.126C187.783 19.8049 187.929 19.3489 187.929 18.7542C187.929 18.5025 187.904 18.2653 187.856 18.0391C187.805 17.8056 187.725 17.6086 187.608 17.4408C187.491 17.2766 187.338 17.1489 187.156 17.0614C186.97 16.9665 186.747 16.9154 186.484 16.9154C186.24 16.9154 186.01 16.9592 185.799 17.0468C185.594 17.127 185.437 17.2073 185.332 17.2949V20.4908Z" fill="#1AABE7"/>
<path d="M190.017 18.7688C190.017 18.3237 190.079 17.9333 190.206 17.6013C190.341 17.262 190.513 16.9848 190.717 16.7695C190.929 16.5469 191.177 16.3828 191.461 16.2733C191.742 16.1675 192.03 16.1128 192.322 16.1128C192.994 16.1128 193.508 16.328 193.869 16.7549C194.238 17.1745 194.424 17.8166 194.424 18.6812C194.424 18.7214 194.424 18.7688 194.424 18.8272C194.424 18.8855 194.417 18.9439 194.409 19.0023H190.951C190.987 19.5277 191.14 19.929 191.403 20.199C191.673 20.4616 192.093 20.593 192.658 20.593C192.968 20.593 193.231 20.5711 193.446 20.52C193.669 20.4616 193.833 20.4106 193.942 20.3595L194.074 21.1183C193.964 21.1767 193.771 21.2351 193.49 21.2935C193.216 21.3591 192.906 21.3956 192.556 21.3956C192.118 21.3956 191.739 21.3299 191.418 21.2059C191.097 21.0709 190.834 20.8848 190.63 20.6513C190.425 20.4179 190.268 20.1406 190.163 19.8195C190.064 19.4985 190.017 19.1482 190.017 18.7688ZM193.475 18.2726C193.483 17.864 193.38 17.5284 193.169 17.2657C192.964 17.003 192.676 16.8717 192.308 16.8717C192.103 16.8717 191.917 16.9154 191.753 17.003C191.596 17.0833 191.461 17.1854 191.345 17.3095C191.235 17.4371 191.155 17.5867 191.097 17.7618C191.038 17.9297 190.998 18.0975 190.98 18.2726H193.475Z" fill="#1AABE7"/>
<path d="M196.716 16.2296H198.628V16.9884H196.716V19.3234C196.716 19.5788 196.735 19.7867 196.775 19.9509C196.811 20.1187 196.87 20.2501 196.95 20.3449C197.026 20.4325 197.125 20.4982 197.242 20.5346C197.358 20.5748 197.493 20.593 197.65 20.593C197.92 20.593 198.139 20.5638 198.307 20.5055C198.471 20.4398 198.584 20.3887 198.643 20.3595L198.818 21.1184C198.73 21.1585 198.57 21.2132 198.336 21.2789C198.11 21.3446 197.858 21.3811 197.577 21.3811C197.227 21.3811 196.939 21.3373 196.716 21.2497C196.49 21.1622 196.311 21.0308 196.176 20.8557C196.049 20.6806 195.957 20.469 195.899 20.2136C195.841 19.9619 195.812 19.6663 195.812 19.3234V14.8286L196.716 14.6681V16.2296Z" fill="#1AABE7"/>
<path d="M201.631 20.6222C201.843 20.6222 202.032 20.6185 202.2 20.6076C202.364 20.6003 202.499 20.5857 202.609 20.5638V19.0607C202.55 19.0242 202.448 18.995 202.302 18.9731C202.156 18.9549 201.981 18.9439 201.777 18.9439C201.638 18.9439 201.492 18.9549 201.339 18.9731C201.182 18.995 201.04 19.0315 200.916 19.0899C200.788 19.1482 200.682 19.2321 200.595 19.3379C200.515 19.4474 200.478 19.586 200.478 19.7611C200.478 20.0931 200.58 20.323 200.784 20.447C200.996 20.5638 201.281 20.6222 201.631 20.6222ZM201.558 16.1128C201.915 16.1128 202.218 16.1639 202.463 16.2587C202.714 16.3463 202.919 16.4776 203.076 16.6527C203.229 16.8206 203.338 17.0249 203.397 17.2657C203.462 17.4992 203.499 17.7582 203.499 18.0391V21.1913C203.419 21.2022 203.309 21.2205 203.163 21.2497C203.025 21.2716 202.871 21.2862 202.696 21.3081C202.521 21.3263 202.331 21.3409 202.127 21.3518C201.93 21.3701 201.733 21.381 201.529 21.381C201.244 21.381 200.982 21.3518 200.741 21.2935C200.496 21.2351 200.288 21.1439 200.113 21.0162C199.945 20.8921 199.814 20.7243 199.719 20.52C199.621 20.3157 199.573 20.0676 199.573 19.7757C199.573 19.4948 199.624 19.2577 199.734 19.0607C199.851 18.8564 200.004 18.6958 200.201 18.5791C200.394 18.455 200.617 18.3602 200.872 18.3018C201.135 18.2434 201.405 18.2142 201.689 18.2142C201.784 18.2142 201.879 18.2215 201.967 18.2288C202.061 18.2398 202.156 18.2544 202.244 18.2726C202.331 18.2836 202.408 18.2982 202.477 18.3164C202.543 18.3273 202.587 18.3383 202.609 18.3456V18.0829C202.609 17.937 202.594 17.791 202.565 17.6451C202.536 17.4992 202.477 17.3751 202.39 17.2657C202.302 17.1489 202.185 17.0577 202.04 16.9884C201.901 16.9227 201.718 16.8862 201.485 16.8862C201.182 16.8862 200.919 16.9081 200.697 16.9446C200.471 16.9848 200.307 17.0285 200.201 17.076L200.099 16.3317C200.204 16.2843 200.394 16.2368 200.668 16.1858C200.938 16.1383 201.237 16.1128 201.558 16.1128Z" fill="#1AABE7"/>
<path d="M205.856 18.3747C205.856 17.5502 205.732 16.7841 205.491 16.0836C205.258 15.3758 204.907 14.7191 204.44 14.1135L205.083 13.6757C205.579 14.2886 205.98 15 206.294 15.8063C206.604 16.6053 206.761 17.4627 206.761 18.3747C206.761 19.3014 206.604 20.1624 206.294 20.9578C205.98 21.7531 205.579 22.4609 205.083 23.0738L204.44 22.636C204.907 22.0304 205.258 21.381 205.491 20.6805C205.732 19.9727 205.856 19.2029 205.856 18.3747Z" fill="#1AABE7"/>
</svg>
